{"title":"Pan.2015.BRRip.480p.x264.AAC-VYTO [P2PDL]","uid":12944626,"size":431676109,"categoryP":"video","categoryS":"movies","magnet":"?xt=urn:btih:cd6266c49b96873e627136e4509e028f94655062&amp;dn=Pan.2015.BRRip.480p.x264.AAC-VYTO+%5BP2PDL%5D&amp;tr=udp%3A%2F%2Ftracker.leechers-paradise.org%3A6969&amp;tr=udp%3A%2F%2Fzer0day.ch%3A1337&amp;tr=udp%3A%2F%2Fopen.demonii.com%3A1337&amp;tr=udp%3A%2F%2Ftracker.coppersurfer.tk%3A6969&amp;tr=udp%3A%2F%2Fexodus.desync.com%3A6969","seeders":2,"leechers":0,"uploader":"VYTOP2PDL","files":7,"time":1449665459,"description":"____    ____ ____    ____ .___________.  ______   \r\n     /   /      /   / |           | /  __    \r\n    /   /      /   /  `---|  |----`|  |  |  | \r\n        /     _    _/       |  |     |  |  |  | \r\n       /        |  |         |  |     |  `--'  | \r\n    __/         |__|         |__|      ______/  \r\n                                                  \r\nPresenting Small Encodes with quality for years!\r\n                                                                                                   \r\n                                                                                                   \r\n\r\nPan.2015.BRRip.480p.x264.AAC-VYTO\r\n\r\n\r\nGenre: Adventure, Family, Fantasy \nhttp://www.imdb.com/title/tt3332064/\r\n\r\n\r\nGeneral\r\nFormat                         : MPEG-4\r\nFile size                      : 401 MiB\r\nDuration                       : 1h 51mn\r\nOverall bit rate               : 503 Kbps\r\n\r\nVideo\r\nFormat                         : AVC\r\nBit rate                       : 468 Kbps\r\nWidth                          : 720 pixels\r\nHeight                         : 304 pixels\r\nDisplay aspect ratio           : 2.35:1\r\nFrame rate mode                : Constant\r\nFrame rate                     : 23.976 fps\r\nBit depth                      : 8 bits\r\nStream size                    : 373 MiB (93%)\r\nWriting library                : x264\r\n\r\nAudio\r\nFormat                         : AAC\r\nBit rate mode                  : Variable\r\nBit rate                       : 32.0 Kbps\r\nChannel(s)                     : 2 channels \r\nChannel positions              : Front: L R \r\nSampling rate                  : 48.0 KHz\r\nStream size                    : 25.5 MiB (6%)\r\nLanguage                       : English\r\n\r\n\r\nSubtitle                       : Yes (English)\r\n\r\nScreen Shots: (Click link to view)\r\n \nhttp://ititli.com/JV \nhttp://ititli.com/Jt \nhttp://ititli.com/JL \nhttp://ititli.com/Jd \nhttp://ititli.com/J0 \nhttp://ititli.com/JA \nhttp://ititli.com/Jl \nhttp://ititli.com/Jm \nhttp://ititli.com/Jx\r\n\r\n----------------------------------------------------------------------------------------------------\r\n\r\n\r\nEncoder Notes: Looking For Early Access To Anything You Can Provide WEBDL, DVDScr, DVDR, BluRay,\r\nDirect Audio, Music Releases and Seedboxes. If You Got anything to offer please contact us.\r\n\r\nSupport us by donating BC - 1FgwdzPsd1y25Gea8wP1qni35uGCtmkRCD\r\n\r\nSend some love!\r\nFind us and join us!","torrent":{"xt":"urn:btih:cd6266c49b96873e627136e4509e028f94655062","amp;dn":"Pan.2015.BRRip.480p.x264.AAC-VYTO+%5BP2PDL%5D","amp;tr":["udp%3A%2F%2Ftracker.leechers-paradise.org%3A6969","udp%3A%2F%2Fzer0day.ch%3A1337","udp%3A%2F%2Fopen.demonii.com%3A1337","udp%3A%2F%2Ftracker.coppersurfer.tk%3A6969","udp%3A%2F%2Fexodus.desync.com%3A6969"],"infoHash":"cd6266c49b96873e627136e4509e028f94655062","infoHashBuffer":{"type":"Buffer","data":[205,98,102,196,155,150,135,62,98,113,54,228,80,158,2,143,148,101,80,98]},"announce":[],"urlList":[]}}